<?xml version="1.0" encoding="UTF-8" standalone="no"?>
<svg width="866px" height="340px" viewBox="0 0 866 340" version="1.1" xmlns="http://www.w3.org/2000/svg" xmlns:xlink="http://www.w3.org/1999/xlink" xmlns:sketch="http://www.bohemiancoding.com/sketch/ns">
    <!-- Generator: Sketch 3.3.3 (12072) - http://www.bohemiancoding.com/sketch -->
    <title>shapes second</title>
    <desc>Created with Sketch.</desc>
    <defs></defs>
    <g id="Page-1" stroke="none" stroke-width="1" fill="none" fill-rule="evenodd" sketch:type="MSPage">
        <g id="Desktop-HD" sketch:type="MSArtboardGroup" transform="translate(-198.000000, -81.000000)">
            <g id="shapes-second" sketch:type="MSLayerGroup" transform="translate(204.000000, 86.000000)">
                <ellipse id="Oval-17" fill="#F19591" sketch:type="MSShapeGroup" cx="40.1907074" cy="73.7598039" rx="13.79681" ry="13.7924837"></ellipse>
                <ellipse id="Oval-17-Copy" fill="#F19591" sketch:type="MSShapeGroup" cx="446.896671" cy="83.3545752" rx="8.99791956" ry="8.99509804"></ellipse>
                <path d="M0.599861304,214.083333 L18.5957004,230.874183" id="Line" stroke="#2196F3" stroke-width="12.0000005" stroke-linecap="round" sketch:type="MSShapeGroup"></path>
                <path d="M528.899731,217.78226 L508.729105,231.888313" id="Line-Copy" stroke="#2196F3" stroke-width="12.0000005" stroke-linecap="round" sketch:type="MSShapeGroup"></path>
                <path d="M507.325724,52.5123104 L530.303112,61.3412691" id="Line-Copy-3" stroke="#2196F3" stroke-width="12.0000005" stroke-linecap="round" sketch:type="MSShapeGroup"></path>
                <path d="M634.216196,239.370495 L634.216196,261.457517" id="Line-Copy-2" stroke="#2196F3" stroke-width="12.0000005" stroke-linecap="round" sketch:type="MSShapeGroup"></path>
                <path d="M210.085019,51.3728549 C202.695291,51.9823039 196.88807,58.1710651 196.88807,65.7157501 C196.88807,73.2604351 202.695291,79.4491963 210.085019,80.0586453 L210.085019,51.3728549 Z" id="Oval-21" fill="#F19591" sketch:type="MSShapeGroup" transform="translate(203.486545, 65.715750) rotate(35.000000) translate(-203.486545, -65.715750) "></path>
                <path d="M677.243412,303.63247 C669.853684,304.241919 664.046463,310.43068 664.046463,317.975365 C664.046463,325.52005 669.853684,331.708811 677.243412,332.31826 L677.243412,303.63247 Z" id="Oval-21-Copy" fill="#FF8AB2" sketch:type="MSShapeGroup" transform="translate(670.644938, 317.975365) rotate(-19.000000) translate(-670.644938, -317.975365) "></path>
                <path d="M155.364078,163.111111 L164.961859,134.926471 L183.557559,142.122549 L155.364078,163.111111 Z" id="Path-42" fill="#F8E81C" sketch:type="MSShapeGroup"></path>
                <path d="M604.491551,65.8765545 L619.164739,22.7875817 L647.59404,33.7890216 L604.491551,65.8765545 Z" id="Path-42-Copy-2" fill="#F8E81C" sketch:type="MSShapeGroup"></path>
                <path d="M805.77548,169.350634 L820.448668,126.261661 L848.877969,137.263101 L805.77548,169.350634 Z" id="Path-42-Copy-3" fill="#2196F3" sketch:type="MSShapeGroup" transform="translate(827.326725, 147.806148) rotate(-153.000000) translate(-827.326725, -147.806148) "></path>
                <path d="M98.3163304,57.2078865 L107.914111,29.023246 L126.509812,36.2193244 L98.3163304,57.2078865 Z" id="Path-42-Copy" fill="#FF8AB2" sketch:type="MSShapeGroup" transform="translate(112.413071, 43.115566) rotate(-255.000000) translate(-112.413071, -43.115566) "></path>
                <ellipse id="Oval-18" fill="#98E79B" sketch:type="MSShapeGroup" cx="73.7829404" cy="321.207516" rx="13.79681" ry="13.7924837"></ellipse>
                <ellipse id="Oval-18-Copy" fill="#98E79B" sketch:type="MSShapeGroup" cx="589.663662" cy="253.661765" rx="13.79681" ry="13.7924837"></ellipse>
                <ellipse id="Oval-18-Copy-2" fill="#FF8AB2" sketch:type="MSShapeGroup" cx="349.71914" cy="164.910131" rx="13.79681" ry="13.7924837"></ellipse>
                <path d="M290.175876,35.816419 L312.171245,13.8279473 L336.186536,37.8357073 L361.921647,12.1086657 L386.914537,37.0937187" id="Path-43-Copy-2" stroke="#98E89B" stroke-width="18.0000007" sketch:type="MSShapeGroup" transform="translate(338.545207, 24.972186) rotate(-345.000000) translate(-338.545207, -24.972186) "></path>
                <path d="M371.098725,271.425311 C371.098725,271.425311 381.086448,248.909855 393.094093,249.43684 C405.101739,249.963824 404.241828,273.889278 417.109384,273.444599 C429.97694,272.999921 430.34805,247.900341 442.844495,247.717558 C455.34094,247.534775 467.837386,272.702611 467.837386,272.702611" id="Path-43-Copy-3" stroke="#F8E71C" stroke-width="18.0000007" sketch:type="MSShapeGroup" transform="translate(419.468055, 260.583644) rotate(152.000000) translate(-419.468055, -260.583644) "></path>
                <path d="M112.767048,259.865205 C112.767048,259.865205 122.754772,237.349749 134.762417,237.876733 C146.770062,238.403717 145.910152,262.329172 158.777708,261.884493 C171.645263,261.439814 172.016374,236.340235 184.512819,236.157451 C197.009264,235.974668 209.505709,261.142504 209.505709,261.142504" id="Path-43-Copy-4" stroke="#FF8AB2" stroke-width="18.0000007" sketch:type="MSShapeGroup" transform="translate(161.136379, 249.023538) rotate(21.000000) translate(-161.136379, -249.023538) "></path>
                <path d="M769.629082,268.913609 L791.624451,246.925138 L815.639742,270.932898 L841.374853,245.205856 L866.367743,270.190909" id="Path-43-Copy" stroke="#F19591" stroke-width="18.0000007" sketch:type="MSShapeGroup" transform="translate(817.998413, 258.069377) rotate(-216.000000) translate(-817.998413, -258.069377) "></path>
            </g>
        </g>
    </g>
</svg>