<?xml version="1.0" encoding="UTF-8" standalone="no"?>
<svg width="1440px" height="680px" viewBox="0 0 1440 680" version="1.1" xmlns="http://www.w3.org/2000/svg" xmlns:xlink="http://www.w3.org/1999/xlink" xmlns:sketch="http://www.bohemiancoding.com/sketch/ns">
    <!-- Generator: Sketch 3.3.3 (12072) - http://www.bohemiancoding.com/sketch -->
    <title>shapes second copy</title>
    <desc>Created with Sketch.</desc>
    <defs></defs>
    <g id="Page-1" stroke="none" stroke-width="1" fill="none" fill-rule="evenodd" sketch:type="MSPage">
        <g id="Desktop-HD-Copy-11" sketch:type="MSArtboardGroup" transform="translate(0.000000, -116.000000)">
            <g id="shapes-second-copy" sketch:type="MSLayerGroup" transform="translate(-46.000000, 126.000000)">
                <ellipse id="Oval-17" fill="#F19591" sketch:type="MSShapeGroup" cx="80.3814147" cy="147.519608" rx="27.59362" ry="27.5849673"></ellipse>
                <ellipse id="Oval-17-Copy" fill="#F19591" sketch:type="MSShapeGroup" cx="893.793343" cy="166.70915" rx="17.9958391" ry="17.9901961"></ellipse>
                <path d="M1057.79946,435.56452 L1017.45821,463.776626" id="Line-Copy" stroke="#2196F3" stroke-width="24.000001" stroke-linecap="round" sketch:type="MSShapeGroup"></path>
                <path d="M1014.65145,105.024621 L1060.60622,122.682538" id="Line-Copy-3" stroke="#2196F3" stroke-width="24.000001" stroke-linecap="round" sketch:type="MSShapeGroup"></path>
                <path d="M1268.43239,478.74099 L1268.43239,522.915034" id="Line-Copy-2" stroke="#2196F3" stroke-width="24.000001" stroke-linecap="round" sketch:type="MSShapeGroup"></path>
                <path d="M420.170038,102.74571 C405.390582,103.964608 393.776141,116.34213 393.776141,131.4315 C393.776141,146.52087 405.390582,158.898393 420.170038,160.117291 L420.170038,102.74571 Z" id="Oval-21" fill="#F19591" sketch:type="MSShapeGroup" transform="translate(406.973090, 131.431500) rotate(35.000000) translate(-406.973090, -131.431500) "></path>
                <path d="M1354.48682,607.26494 C1339.70737,608.483837 1328.09293,620.86136 1328.09293,635.95073 C1328.09293,651.0401 1339.70737,663.417622 1354.48682,664.63652 L1354.48682,607.26494 Z" id="Oval-21-Copy" fill="#FF8AB2" sketch:type="MSShapeGroup" transform="translate(1341.289875, 635.950730) rotate(-19.000000) translate(-1341.289875, -635.950730) "></path>
                <path d="M310.728155,326.222222 L329.923717,269.852941 L367.115118,284.245098 L310.728155,326.222222 Z" id="Path-42" fill="#F8E81C" sketch:type="MSShapeGroup"></path>
                <path d="M1208.9831,131.753109 L1238.32948,45.5751634 L1295.18808,67.5780431 L1208.9831,131.753109 Z" id="Path-42-Copy-2" fill="#F8E81C" sketch:type="MSShapeGroup"></path>
                <path d="M196.632661,114.415773 L215.828223,58.046492 L253.019623,72.4386489 L196.632661,114.415773 Z" id="Path-42-Copy" fill="#FF8AB2" sketch:type="MSShapeGroup" transform="translate(224.826142, 86.231133) rotate(-255.000000) translate(-224.826142, -86.231133) "></path>
                <ellipse id="Oval-18" fill="#98E79B" sketch:type="MSShapeGroup" cx="147.565881" cy="642.415033" rx="27.59362" ry="27.5849673"></ellipse>
                <ellipse id="Oval-18-Copy" fill="#98E79B" sketch:type="MSShapeGroup" cx="1179.32732" cy="507.323529" rx="27.59362" ry="27.5849673"></ellipse>
                <ellipse id="Oval-18-Copy-2" fill="#FF8AB2" sketch:type="MSShapeGroup" cx="699.43828" cy="329.820261" rx="27.59362" ry="27.5849673"></ellipse>
                <path d="M580.351752,71.632838 L624.34249,27.6558946 L672.373071,75.6714145 L723.843294,24.2173314 L773.829074,74.1874374" id="Path-43-Copy-2" stroke="#98E89B" stroke-width="36.0000014" sketch:type="MSShapeGroup" transform="translate(677.090413, 49.944373) rotate(-345.000000) translate(-677.090413, -49.944373) "></path>
                <path d="M742.266301,543.126772 C742.266301,543.126772 756.83339,495.711265 786.257039,499.149828 C815.680687,502.588391 808.552508,548.054706 834.28762,547.165348 C860.022731,546.27599 851.802012,500.493094 885.757843,495.711265 C919.713673,490.929436 935.743623,545.681371 935.743623,545.681371" id="Path-43-Copy-3" stroke="#F8E71C" stroke-width="36.0000014" sketch:type="MSShapeGroup" transform="translate(839.004962, 521.296780) rotate(152.000000) translate(-839.004962, -521.296780) "></path>
                <path d="M225.572625,519.73755 C225.572625,519.73755 237.645143,470.693556 269.563363,475.760607 C301.481584,480.827658 291.858833,524.665485 317.593944,523.776127 C343.329056,522.886769 332.749954,476.384475 369.064167,472.322044 C405.378381,468.259613 419.049948,522.29215 419.049948,522.29215" id="Path-43-Copy-4" stroke="#FF8AB2" stroke-width="36.0000014" sketch:type="MSShapeGroup" transform="translate(322.311287, 497.946704) rotate(21.000000) translate(-322.311287, -497.946704) "></path>
                <path d="M1339.25816,257.827219 L1383.2489,213.850275 L1431.27948,261.865795 L1482.74971,210.411712 L1532.73549,260.381818" id="Path-43-Copy" stroke="#F19591" stroke-width="36.0000014" sketch:type="MSShapeGroup" transform="translate(1435.996826, 236.138754) rotate(-216.000000) translate(-1435.996826, -236.138754) "></path>
                <path d="M1361.55096,528.701268 L1390.89734,442.523323 L1447.75594,464.526202 L1361.55096,528.701268 Z" id="Path-42-Copy-3" fill="#2196F3" sketch:type="MSShapeGroup" transform="translate(1404.653450, 485.612295) rotate(-153.000000) translate(-1404.653450, -485.612295) "></path>
            </g>
        </g>
    </g>
</svg>